{"asset":{"version":"2.0","generator":"VECTARY"},"scene":0,"extensionsUsed":["KHR_texture_transform","KHR_lights_punctual"],"extensionsRequired":["KHR_lights_punctual"],"nodes":[{"translation":[-0.19064697265625,0.021606756862075308,3.552713678800501e-18],"scale":[0.001,0.001,0.001],"rotation":[-0.7071067811865475,0,0,0.7071067811865476],"name":"P","mesh":0},{"translation":[-0.13646240234375,0.021606756862075308,3.552713678800501e-18],"scale":[0.001,0.001,0.001],"rotation":[-0.7071067811865475,0,0,0.7071067811865476],"name":"a","mesh":1},{"translation":[-0.08640869140625,0.021606756862075308,3.552713678800501e-18],"scale":[0.001,0.001,0.001],"rotation":[-0.7071067811865475,0,0,0.7071067811865476],"name":"r","mesh":2},{"translation":[-0.049670410156250004,0.021606756862075308,3.552713678800501e-18],"scale":[0.001,0.001,0.001],"rotation":[-0.7071067811865475,0,0,0.7071067811865476],"name":"a","mesh":3},{"translation":[0.00038330078125,0.021606756862075308,3.552713678800501e-18],"scale":[0.001,0.001,0.001],"rotation":[-0.7071067811865475,0,0,0.7071067811865476],"name":"l","mesh":4},{"translation":[0.02314697265625,0.021606756862075308,3.552713678800501e-18],"scale":[0.001,0.001,0.001],"rotation":[-0.7071067811865475,0,0,0.7071067811865476],"name":"a","mesh":5},{"translation":[0.07320068359375,0.021606756862075308,3.552713678800501e-18],"scale":[0.001,0.001,0.001],"rotation":[-0.7071067811865475,0,0,0.7071067811865476],"name":"n","mesh":6},{"translation":[0.12843994140625,0.021606756862075308,3.552713678800501e-18],"scale":[0.001,0.001,0.001],"rotation":[-0.7071067811865475,0,0,0.7071067811865476],"name":"g","mesh":7},{"translation":[-0.009005741677978733,0.09441463609242655,0.4440857036614641],"scale":[1,1,1],"rotation":[-0.05378448704474997,-0.0104165140864379,-0.0005610895801120841,0.9984980772971489],"name":"Camera","camera":0}],"materials":[{"pbrMetallicRoughness":{"baseColorFactor":[0,0.002585825596234168,0.5795466117825252,1],"metallicFactor":0,"roughnessFactor":1},"name":"3D Text material","emissiveFactor":[0,0,0],"alphaMode":"OPAQUE","doubleSided":false}],"meshes":[{"primitives":[{"mode":4,"attributes":{"POSITION":1,"NORMAL":2,"TEXCOORD_0":3},"material":0,"indices":0}]},{"primitives":[{"mode":4,"attributes":{"POSITION":5,"NORMAL":6,"TEXCOORD_0":7},"material":0,"indices":4}]},{"primitives":[{"mode":4,"attributes":{"POSITION":9,"NORMAL":10,"TEXCOORD_0":11},"material":0,"indices":8}]},{"primitives":[{"mode":4,"attributes":{"POSITION":5,"NORMAL":6,"TEXCOORD_0":7},"material":0,"indices":4}]},{"primitives":[{"mode":4,"attributes":{"POSITION":13,"NORMAL":14,"TEXCOORD_0":15},"material":0,"indices":12}]},{"primitives":[{"mode":4,"attributes":{"POSITION":5,"NORMAL":6,"TEXCOORD_0":7},"material":0,"indices":4}]},{"primitives":[{"mode":4,"attributes":{"POSITION":17,"NORMAL":18,"TEXCOORD_0":19},"material":0,"indices":16}]},{"primitives":[{"mode":4,"attributes":{"POSITION":21,"NORMAL":22,"TEXCOORD_0":23},"material":0,"indices":20}]}],"accessors":[{"bufferView":0,"byteOffset":0,"componentType":5125,"count":516,"type":"SCALAR"},{"bufferView":1,"byteOffset":0,"componentType":5126,"count":516,"max":[55.078125,4.37117578122744e-15,71.38671875],"min":[9.814453125,-25,0],"type":"VEC3"},{"bufferView":2,"byteOffset":0,"componentType":5126,"count":516,"type":"VEC3"},{"bufferView":3,"byteOffset":0,"componentType":5126,"count":516,"type":"VEC2"},{"bufferView":4,"byteOffset":0,"componentType":5125,"count":1188,"type":"SCALAR"},{"bufferView":5,"byteOffset":0,"componentType":5126,"count":1188,"max":[47.509765625,3.3307044375010175e-15,54.39453125],"min":[4.58984375,-25,-0.9765625],"type":"VEC3"},{"bufferView":6,"byteOffset":0,"componentType":5126,"count":1188,"type":"VEC3"},{"bufferView":7,"byteOffset":0,"componentType":5126,"count":1188,"type":"VEC2"},{"bufferView":8,"byteOffset":0,"componentType":5125,"count":432,"type":"SCALAR"},{"bufferView":9,"byteOffset":0,"componentType":5126,"count":432,"max":[39.404296875,3.3366840665921592e-15,54.4921875],"min":[8.59375,-25,0],"type":"VEC3"},{"bufferView":10,"byteOffset":0,"componentType":5126,"count":432,"type":"VEC3"},{"bufferView":11,"byteOffset":0,"componentType":5126,"count":432,"type":"VEC2"},{"bufferView":12,"byteOffset":0,"componentType":5125,"count":36,"type":"SCALAR"},{"bufferView":13,"byteOffset":0,"componentType":5126,"count":36,"max":[16.69921875,4.652222583675838e-15,75.9765625],"min":[8.59375,-25,0],"type":"VEC3"},{"bufferView":14,"byteOffset":0,"componentType":5126,"count":36,"type":"VEC3"},{"bufferView":15,"byteOffset":0,"componentType":5126,"count":36,"type":"VEC2"},{"bufferView":16,"byteOffset":0,"componentType":5125,"count":576,"type":"SCALAR"},{"bufferView":17,"byteOffset":0,"componentType":5126,"count":576,"max":[53.3203125,3.3366840665921592e-15,54.4921875],"min":[8.59375,-25,0],"type":"VEC3"},{"bufferView":18,"byteOffset":0,"componentType":5126,"count":576,"type":"VEC3"},{"bufferView":19,"byteOffset":0,"componentType":5126,"count":576,"type":"VEC2"},{"bufferView":20,"byteOffset":0,"componentType":5125,"count":2412,"type":"SCALAR"},{"bufferView":21,"byteOffset":0,"componentType":5126,"count":2412,"max":[52.392578125,3.3366840665921592e-15,54.4921875],"min":[1.904296875,-25,-24.0234375],"type":"VEC3"},{"bufferView":22,"byteOffset":0,"componentType":5126,"count":2412,"type":"VEC3"},{"bufferView":23,"byteOffset":0,"componentType":5126,"count":2412,"type":"VEC2"}],"bufferViews":[{"buffer":0,"byteOffset":0,"byteLength":2064,"target":34963},{"buffer":0,"byteOffset":2064,"byteLength":6192,"target":34962},{"buffer":0,"byteOffset":8256,"byteLength":6192,"target":34962},{"buffer":0,"byteOffset":14448,"byteLength":4128,"target":34962},{"buffer":0,"byteOffset":18576,"byteLength":4752,"target":34963},{"buffer":0,"byteOffset":23328,"byteLength":14256,"target":34962},{"buffer":0,"byteOffset":37584,"byteLength":14256,"target":34962},{"buffer":0,"byteOffset":51840,"byteLength":9504,"target":34962},{"buffer":0,"byteOffset":61344,"byteLength":1728,"target":34963},{"buffer":0,"byteOffset":63072,"byteLength":5184,"target":34962},{"buffer":0,"byteOffset":68256,"byteLength":5184,"target":34962},{"buffer":0,"byteOffset":73440,"byteLength":3456,"target":34962},{"buffer":0,"byteOffset":76896,"byteLength":144,"target":34963},{"buffer":0,"byteOffset":77040,"byteLength":432,"target":34962},{"buffer":0,"byteOffset":77472,"byteLength":432,"target":34962},{"buffer":0,"byteOffset":77904,"byteLength":288,"target":34962},{"buffer":0,"byteOffset":78192,"byteLength":2304,"target":34963},{"buffer":0,"byteOffset":80496,"byteLength":6912,"target":34962},{"buffer":0,"byteOffset":87408,"byteLength":6912,"target":34962},{"buffer":0,"byteOffset":94320,"byteLength":4608,"target":34962},{"buffer":0,"byteOffset":98928,"byteLength":9648,"target":34963},{"buffer":0,"byteOffset":108576,"byteLength":28944,"target":34962},{"buffer":0,"byteOffset":137520,"byteLength":28944,"target":34962},{"buffer":0,"byteOffset":166464,"byteLength":19296,"target":34962}],"cameras":[{"name":"Camera","type":"perspective","extras":{"targetDistance":0.43422473782737503},"perspective":{"aspectRatio":1.5235389610389611,"yfov":0.6108652381980153,"zfar":36.46418645608586,"znear":0.0026897454520719696}}],"scenes":[{"nodes":[0,1,2,3,4,5,6,7,8],"name":"Project Name"}],"buffers":[{"byteLength":185760,"uri":"ProjectName.bin"}]}