{
  "accessors": [
    {
      "bufferView": 2,
      "componentType": 5126,
      "count": 65532,
      "max": [
        1.2499558925628662,
        1.6992635726928711,
        1.9015688896179199
      ],
      "min": [
        -1.6889338493347168,
        -1.681444525718689,
        -2.7108664512634277
      ],
      "type": "VEC3"
    },
    {
      "bufferView": 2,
      "byteOffset": 786384,
      "componentType": 5126,
      "count": 65532,
      "max": [
        0.99998807907104492,
        0.99996376037597656,
        0.99878197908401489
      ],
      "min": [
        -0.99993896484375,
        -0.99991500377655029,
        -0.99993002414703369
      ],
      "type": "VEC3"
    },
    {
      "bufferView": 3,
      "componentType": 5126,
      "count": 65532,
      "max": [
        0.99998229742050171,
        0.99999630451202393,
        0.99995201826095581,
        1
      ],
      "min": [
        -0.99992078542709351,
        -0.99999034404754639,
        -0.99960052967071533,
        -1
      ],
      "type": "VEC4"
    },
    {
      "bufferView": 1,
      "componentType": 5126,
      "count": 65532,
      "max": [
        1,
        0.84147673845291138
      ],
      "min": [
        0.063807398080825806,
        0
      ],
      "type": "VEC2"
    },
    {
      "bufferView": 0,
      "componentType": 5125,
      "count": 365253,
      "max": [
        65531
      ],
      "min": [
        0
      ],
      "type": "SCALAR"
    },
    {
      "bufferView": 2,
      "byteOffset": 1572768,
      "componentType": 5126,
      "count": 65532,
      "max": [
        1.2485198974609375,
        1.8025083541870117,
        3.5787086486816406
      ],
      "min": [
        -1.6883890628814697,
        -1.6796910762786865,
        -2.0073676109313965
      ],
      "type": "VEC3"
    },
    {
      "bufferView": 2,
      "byteOffset": 2359152,
      "componentType": 5126,
      "count": 65532,
      "max": [
        0.99999451637268066,
        0.99997043609619141,
        0.99959802627563477
      ],
      "min": [
        -0.99996614456176758,
        -0.99984216690063477,
        -0.99942624568939209
      ],
      "type": "VEC3"
    },
    {
      "bufferView": 3,
      "byteOffset": 1048512,
      "componentType": 5126,
      "count": 65532,
      "max": [
        0.99956202507019043,
        0.99999630451202393,
        0.99992263317108154,
        1
      ],
      "min": [
        -0.99999642372131348,
        -0.99998658895492554,
        -0.99832272529602051,
        -1
      ],
      "type": "VEC4"
    },
    {
      "bufferView": 1,
      "byteOffset": 524256,
      "componentType": 5126,
      "count": 65532,
      "max": [
        0.99758762121200562,
        0.8094325065612793
      ],
      "min": [
        0,
        0.065751120448112488
      ],
      "type": "VEC2"
    },
    {
      "bufferView": 0,
      "byteOffset": 1461012,
      "componentType": 5125,
      "count": 346317,
      "max": [
        65531
      ],
      "min": [
        0
      ],
      "type": "SCALAR"
    },
    {
      "bufferView": 2,
      "byteOffset": 3145536,
      "componentType": 5126,
      "count": 37803,
      "max": [
        0.96209871768951416,
        1.7982803583145142,
        3.5808377265930176
      ],
      "min": [
        -0.57465153932571411,
        -1.4877300262451172,
        0.86841243505477905
      ],
      "type": "VEC3"
    },
    {
      "bufferView": 2,
      "byteOffset": 3599172,
      "componentType": 5126,
      "count": 37803,
      "max": [
        0.99999749660491943,
        0.99995887279510498,
        0.99999797344207764
      ],
      "min": [
        -0.99991941452026367,
        -0.99988174438476562,
        -0.99908685684204102
      ],
      "type": "VEC3"
    },
    {
      "bufferView": 3,
      "byteOffset": 2097024,
      "componentType": 5126,
      "count": 37803,
      "max": [
        0.99977225065231323,
        0.99999994039535522,
        0.99999958276748657,
        1
      ],
      "min": [
        -0.99992549419403076,
        -0.99988949298858643,
        -0.99832272529602051,
        -1
      ],
      "type": "VEC4"
    },
    {
      "bufferView": 1,
      "byteOffset": 1048512,
      "componentType": 5126,
      "count": 37803,
      "max": [
        1,
        0.41759127378463745
      ],
      "min": [
        0.0014328926336020231,
        0.058202758431434631
      ],
      "type": "VEC2"
    },
    {
      "bufferView": 0,
      "byteOffset": 2846280,
      "componentType": 5125,
      "count": 205866,
      "max": [
        37802
      ],
      "min": [
        0
      ],
      "type": "SCALAR"
    }
  ],
  "asset": {
    "extras": {
      "author": "Världskulturmuseerna (https://sketchfab.com/varldskulturmuseerna)",
      "license": "CC-BY-4.0 (http://creativecommons.org/licenses/by/4.0/)",
      "source": "https://sketchfab.com/3d-models/head-of-harpokrates-3e531eb6ecf242d99e9051db5aaf39ec",
      "title": "Head of Harpokrates"
    },
    "generator": "Sketchfab-4.98.1",
    "version": "2.0"
  },
  "bufferViews": [
    {
      "buffer": 0,
      "byteLength": 3669744,
      "byteOffset": 0,
      "name": "floatBufferViews",
      "target": 34963
    },
    {
      "buffer": 0,
      "byteLength": 1350936,
      "byteOffset": 3669744,
      "byteStride": 8,
      "name": "floatBufferViews",
      "target": 34962
    },
    {
      "buffer": 0,
      "byteLength": 4052808,
      "byteOffset": 5020680,
      "byteStride": 12,
      "name": "floatBufferViews",
      "target": 34962
    },
    {
      "buffer": 0,
      "byteLength": 2701872,
      "byteOffset": 9073488,
      "byteStride": 16,
      "name": "floatBufferViews",
      "target": 34962
    }
  ],
  "buffers": [
    {
      "byteLength": 11775360,
      "uri": "scene.bin"
    }
  ],
  "extensionsUsed": [
    "KHR_materials_unlit"
  ],
  "images": [
    {
      "uri": "textures/material0_baseColor.png"
    }
  ],
  "materials": [
    {
      "doubleSided": true,
      "emissiveFactor": [
        0,
        0,
        0
      ],
      "extensions": {
        "KHR_materials_unlit": {}
      },
      "name": "material0",
      "pbrMetallicRoughness": {
        "baseColorFactor": [
          1,
          1,
          1,
          1
        ],
        "baseColorTexture": {
          "index": 0,
          "texCoord": 0
        },
        "metallicFactor": 0,
        "roughnessFactor": 1
      }
    }
  ],
  "meshes": [
    {
      "name": "Model_material0_0",
      "primitives": [
        {
          "attributes": {
            "NORMAL": 1,
            "POSITION": 0,
            "TANGENT": 2,
            "TEXCOORD_0": 3
          },
          "indices": 4,
          "material": 0,
          "mode": 4
        }
      ]
    },
    {
      "name": "Model_material0_0",
      "primitives": [
        {
          "attributes": {
            "NORMAL": 6,
            "POSITION": 5,
            "TANGENT": 7,
            "TEXCOORD_0": 8
          },
          "indices": 9,
          "material": 0,
          "mode": 4
        }
      ]
    },
    {
      "name": "Model_material0_0",
      "primitives": [
        {
          "attributes": {
            "NORMAL": 11,
            "POSITION": 10,
            "TANGENT": 12,
            "TEXCOORD_0": 13
          },
          "indices": 14,
          "material": 0,
          "mode": 4
        }
      ]
    }
  ],
  "nodes": [
    {
      "children": [
        1
      ],
      "name": "RootNode (gltf orientation matrix)",
      "rotation": [
        -0.70710678118654746,
        -0,
        -0,
        0.70710678118654757
      ]
    },
    {
      "children": [
        2
      ],
      "name": "RootNode (model correction matrix)"
    },
    {
      "children": [
        3
      ],
      "matrix": [
        1,
        0,
        0,
        0,
        0,
        0,
        1,
        0,
        0,
        -1,
        0,
        0,
        0,
        0,
        0,
        1
      ],
      "name": "Nr3_SculptureHeadModel.fbx"
    },
    {
      "children": [
        4
      ],
      "name": "RootNode"
    },
    {
      "children": [
        5,
        6,
        7
      ],
      "matrix": [
        100,
        0,
        0,
        0,
        0,
        -1.6292067939183141e-05,
        -99.999999999998678,
        0,
        0,
        99.999999999998678,
        -1.6292067939183141e-05,
        0,
        0,
        0,
        0,
        1
      ],
      "name": "Model"
    },
    {
      "mesh": 0,
      "name": "Model_material0_0"
    },
    {
      "mesh": 1,
      "name": "Model_material0_0"
    },
    {
      "mesh": 2,
      "name": "Model_material0_0"
    }
  ],
  "samplers": [
    {
      "magFilter": 9729,
      "minFilter": 9987,
      "wrapS": 10497,
      "wrapT": 10497
    }
  ],
  "scene": 0,
  "scenes": [
    {
      "name": "OSG_Scene",
      "nodes": [
        0
      ]
    }
  ],
  "textures": [
    {
      "sampler": 0,
      "source": 0
    }
  ]
}

